<svg id="Слой_1" data-name="Слой 1" xmlns="http://www.w3.org/2000/svg" viewBox="0 0 385.2 458.04"><defs><style>.cls-1{fill:none;stroke:#000;stroke-miterlimit:10;}</style></defs><path class="cls-1" d="M324.17,90.11,325.93,9.3c-21.08,26-36.09,54-46.82,81.25a149.1,149.1,0,0,0-55.27.52c-20.8-58.56-48-81.77-48-81.77V90A188.34,188.34,0,0,0,58.15,48.8v65.51H57.9v245h.25v67.83A188.28,188.28,0,0,0,175.89,386V464.3a388.68,388.68,0,0,0,42.64-80.63,149.43,149.43,0,0,0,63.27,1.21C290.7,414.65,302,443.25,316,464.3l1.83-83.81A188.41,188.41,0,0,0,442.1,427.12V48.8A188.32,188.32,0,0,0,324.17,90.11Z" transform="translate(-57.4 -7.85)"/></svg>