<svg id="Слой_1" data-name="Слой 1" xmlns="http://www.w3.org/2000/svg" viewBox="0 0 418.61 418.61"><defs><style>.cls-1{fill:none;stroke:#000;stroke-miterlimit:10;}</style></defs><path class="cls-1" d="M175,71.13h0A104,104,0,0,1,248.15,41.2a208.11,208.11,0,0,0-146.58,60.13A104.08,104.08,0,0,1,175,71.13Z" transform="translate(-38.85 -40.7)"/><path class="cls-1" d="M456.47,236.48c.17,1.84.22,3.72.29,5.58C456.69,240.2,456.59,238.34,456.47,236.48Z" transform="translate(-38.85 -40.7)"/><path class="cls-1" d="M324.23,74.25a104.32,104.32,0,0,1,104,100A103.94,103.94,0,0,1,456.36,235C448.66,126.68,358.42,41.2,248.15,41.2A104,104,0,0,1,324.23,74.25Z" transform="translate(-38.85 -40.7)"/><path class="cls-1" d="M432.5,313.12c0,1.14.17,2.25.17,3.39a104.38,104.38,0,0,1-104,104.38,104.16,104.16,0,0,1-80.49,37.91C363.47,458.8,457,365.32,457,250c0-.89-.06-1.76-.07-2.64A103.88,103.88,0,0,1,432.5,313.12Z" transform="translate(-38.85 -40.7)"/><path class="cls-1" d="M167.65,420.88A104.39,104.39,0,0,1,64,316.51c0-1,.13-2,.16-3.05a103.88,103.88,0,0,1-24.69-66.1c0,.88-.07,1.75-.07,2.64,0,115.32,93.48,208.8,208.8,208.8A104.19,104.19,0,0,1,167.65,420.88Z" transform="translate(-38.85 -40.7)"/><path class="cls-1" d="M39.55,242.06c.07-1.86.11-3.74.28-5.58C39.71,238.34,39.62,240.2,39.55,242.06Z" transform="translate(-38.85 -40.7)"/><path class="cls-1" d="M70.79,171.43A104.06,104.06,0,0,1,101,101.84,208.16,208.16,0,0,0,39.94,235,104.09,104.09,0,0,1,70.79,171.43Z" transform="translate(-38.85 -40.7)"/></svg>